<svg width="22" height="21" viewBox="0 0 22 21" fill="none" xmlns="http://www.w3.org/2000/svg">
<path fill-rule="evenodd" clip-rule="evenodd" d="M0.00268555 1.25C0.00268555 0.835786 0.338472 0.5 0.752686 0.5H2.65397C3.40292 0.5 4.06884 0.976594 4.31043 1.68551L4.77875 3.05975H17.2523C19.8757 3.05975 22.0023 5.1864 22.0023 7.80975V11.9522C22.0023 14.5755 19.8757 16.7022 17.2523 16.7022H9.76838C7.46893 16.7022 5.49968 15.0551 5.09319 12.7918L3.51381 3.99807L2.89061 2.16936C2.8561 2.06808 2.76096 2 2.65397 2H0.752686C0.338472 2 0.00268555 1.66421 0.00268555 1.25ZM5.13869 4.55975L6.56957 12.5267C6.84769 14.0752 8.19507 15.2022 9.76838 15.2022H17.2523C19.0472 15.2022 20.5023 13.7471 20.5023 11.9522V7.80975C20.5023 6.01483 19.0472 4.55975 17.2523 4.55975H5.13869Z" fill="#120C0B"/>
<path fill-rule="evenodd" clip-rule="evenodd" d="M16 7.25C16.4142 7.25 16.75 7.58579 16.75 8V12C16.75 12.4142 16.4142 12.75 16 12.75C15.5858 12.75 15.25 12.4142 15.25 12V8C15.25 7.58579 15.5858 7.25 16 7.25Z" fill="#7D7A79"/>
<path fill-rule="evenodd" clip-rule="evenodd" d="M10.5 12.75C10.9142 12.75 11.25 12.4142 11.25 12V8C11.25 7.58579 10.9142 7.25 10.5 7.25C10.0858 7.25 9.75 7.58579 9.75 8V12C9.75 12.4142 10.0858 12.75 10.5 12.75Z" fill="#7D7A79"/>
<path fill-rule="evenodd" clip-rule="evenodd" d="M8.5 19.5C8.5 18.6716 9.17157 18 10 18H10.01C10.8384 18 11.51 18.6716 11.51 19.5C11.51 20.3284 10.8384 21 10.01 21H10C9.17157 21 8.5 20.3284 8.5 19.5Z" fill="#7D7A79"/>
<path fill-rule="evenodd" clip-rule="evenodd" d="M16.5 19.5C16.5 18.6716 17.1716 18 18 18H18.01C18.8384 18 19.51 18.6716 19.51 19.5C19.51 20.3284 18.8384 21 18.01 21H18C17.1716 21 16.5 20.3284 16.5 19.5Z" fill="#7D7A79"/>
</svg>
