<svg width="40" height="40" viewBox="0 0 40 40" fill="none" xmlns="http://www.w3.org/2000/svg">
<path d="M33.3334 11.6667V28.3333C33.3334 35 31.6667 36.6667 25.0001 36.6667H15.0001C8.33341 36.6667 6.66675 35 6.66675 28.3333V11.6667C6.66675 5.00001 8.33341 3.33334 15.0001 3.33334H25.0001C31.6667 3.33334 33.3334 5.00001 33.3334 11.6667Z" stroke="#120C0B" stroke-width="1.5" stroke-linecap="round" stroke-linejoin="round"/>
<path d="M23.3334 9.16669H16.6667" stroke="#CCCACB" stroke-width="1.5" stroke-linecap="round" stroke-linejoin="round"/>
<path d="M20.0001 31.8334C21.4268 31.8334 22.5834 30.6768 22.5834 29.25C22.5834 27.8233 21.4268 26.6667 20.0001 26.6667C18.5733 26.6667 17.4167 27.8233 17.4167 29.25C17.4167 30.6768 18.5733 31.8334 20.0001 31.8334Z" stroke="#CCCACB" stroke-width="1.5" stroke-linecap="round" stroke-linejoin="round"/>
</svg>
