<svg width="24" height="24" viewBox="0 0 24 24" fill="none" xmlns="http://www.w3.org/2000/svg">
<g clip-path="url(#clip0_6732_490)">
<path fill-rule="evenodd" clip-rule="evenodd" d="M2.26388 16.773C1.18994 15.699 1.18994 13.9578 2.26388 12.8839L11.5208 3.62696C12.1863 2.96141 13.146 2.68248 14.0646 2.88761L18.6889 3.92021C19.729 4.15246 20.5412 4.96471 20.7735 6.00479L21.8061 10.629C22.0112 11.5476 21.7323 12.5074 21.0667 13.1729L11.8098 22.4298C10.7359 23.5038 8.99468 23.5038 7.92073 22.4298L2.26388 16.773ZM3.32454 13.9445C2.83638 14.4327 2.83638 15.2241 3.32454 15.7123L8.98139 21.3692C9.46955 21.8573 10.261 21.8573 10.7492 21.3692L20.0061 12.1122C20.3086 11.8097 20.4354 11.3735 20.3421 10.9559L19.3095 6.33169C19.204 5.85893 18.8348 5.48972 18.362 5.38415L13.7377 4.35155C13.3202 4.25831 12.884 4.3851 12.5814 4.68762L3.32454 13.9445Z" fill="#120C0B"/>
<path fill-rule="evenodd" clip-rule="evenodd" d="M14.7 8.5C14.7 7.67157 15.3715 7 16.2 7H16.21C17.0384 7 17.71 7.67157 17.71 8.5C17.71 9.32843 17.0384 10 16.21 10H16.2C15.3715 10 14.7 9.32843 14.7 8.5Z" fill="#7D7A79"/>
</g>
<defs>
<clipPath id="clip0_6732_490">
<rect width="24" height="24" fill="white"/>
</clipPath>
</defs>
</svg>
